<?xml version="1.0" encoding="UTF-8" standalone="no"?>
<!-- Generator: Adobe Illustrator 24.1.0, SVG Export Plug-In . SVG Version: 6.00 Build 0)  -->

<svg
   xmlns:dc="http://purl.org/dc/elements/1.1/"
   xmlns:cc="http://creativecommons.org/ns#"
   xmlns:rdf="http://www.w3.org/1999/02/22-rdf-syntax-ns#"
   xmlns:svg="http://www.w3.org/2000/svg"
   xmlns="http://www.w3.org/2000/svg"
   xmlns:sodipodi="http://sodipodi.sourceforge.net/DTD/sodipodi-0.dtd"
   xmlns:inkscape="http://www.inkscape.org/namespaces/inkscape"
   version="1.1"
   id="Calque_1"
   x="0px"
   y="0px"
   viewBox="0 0 173.25 42.450001"
   xml:space="preserve"
   sodipodi:docname="only_cloud_s.svg"
   width="173.25"
   height="42.450001"
   inkscape:version="0.92.3 (2405546, 2018-03-11)"><metadata
   id="metadata93"><rdf:RDF><cc:Work
       rdf:about=""><dc:format>image/svg+xml</dc:format><dc:type
         rdf:resource="http://purl.org/dc/dcmitype/StillImage" /><dc:title></dc:title></cc:Work></rdf:RDF></metadata><defs
   id="defs91" /><sodipodi:namedview
   pagecolor="#ffffff"
   bordercolor="#666666"
   borderopacity="1"
   objecttolerance="10"
   gridtolerance="10"
   guidetolerance="10"
   inkscape:pageopacity="0"
   inkscape:pageshadow="2"
   inkscape:window-width="2560"
   inkscape:window-height="1377"
   id="namedview89"
   showgrid="false"
   fit-margin-top="0"
   fit-margin-left="0"
   fit-margin-right="0"
   fit-margin-bottom="0"
   inkscape:zoom="1.0518213"
   inkscape:cx="826.74473"
   inkscape:cy="253.12344"
   inkscape:window-x="-8"
   inkscape:window-y="-8"
   inkscape:window-maximized="1"
   inkscape:current-layer="Calque_1" />
<style
   type="text/css"
   id="style2">
	.st0{opacity:0.2;fill:#FFFFFF;}
	.st1{opacity:0.4;}
	.st2{fill:#FFFFFF;}
	.st3{fill:#191C37;}
	.st4{opacity:0.3;fill:#3FBDE6;}
	.st5{fill:#FFFBF4;}
	.st6{fill:url(#Rectangle_1_);}
	.st7{fill:#B0D2F0;}
	.st8{opacity:0.5;}
	.st9{fill:none;stroke:#2F2D7D;stroke-width:10;stroke-miterlimit:10;}
	.st10{opacity:0.8;}
	.st11{fill:none;stroke:#2F2D7D;stroke-width:9;stroke-miterlimit:10;}
	.st12{fill:url(#Rectangle_2_);}
	.st13{fill:url(#Rectangle_3_);}
	.st14{fill:none;}
</style>
<g
   id="XMLID_2364_"
   transform="translate(-223.02,-724.82)">
	<path
   id="XMLID_2375_"
   class="st0"
   d="M 685.58,656.4 H 355.27 c -12.03,0 -21.77,-9.75 -21.77,-21.77 V 372.94 c 0,-17 13.78,-30.79 30.79,-30.79 h 312.29 c 17,0 30.79,13.78 30.79,30.79 v 261.69 c -0.01,12.03 -9.76,21.77 -21.79,21.77 z"
   inkscape:connector-curvature="0"
   style="opacity:0.2;fill:#ffffff" />
	<g
   id="XMLID_2374_"
   class="st1"
   style="opacity:0.4">
		<path
   class="st2"
   d="m 696.94,373.6 v 261.45 c 0,6.51 -5.29,11.8 -11.8,11.8 H 355.71 c -6.51,0 -11.8,-5.29 -11.8,-11.8 V 373.6 h 353.03 m 5,-5 H 338.91 v 266.45 c 0,9.28 7.52,16.8 16.8,16.8 h 329.43 c 9.28,0 16.8,-7.52 16.8,-16.8 z"
   id="path5"
   inkscape:connector-curvature="0"
   style="fill:#ffffff" />
	</g>
	<path
   id="XMLID_2373_"
   class="st3"
   d="m 675.93,346.7 h -311 c -14.37,0 -26.01,11.65 -26.01,26.01 v 4.88 h 363.03 v -4.88 C 701.94,358.35 690.3,346.7 675.93,346.7 Z"
   inkscape:connector-curvature="0"
   style="fill:#191c37" />
	<g
   id="XMLID_2370_">
		<path
   id="XMLID_2372_"
   class="st4"
   d="m 652.74,503.91 c 0.63,18.17 -3.6,36.18 -12.1,52.25 -10.02,18.95 -26.58,41.41 -53.31,55.92 -72.51,39.35 -177.36,-2.88 -199.04,-61.48 -1.54,-4.15 -11.68,-31.57 1.22,-51.13 16.48,-24.99 50.48,-6.72 85.83,-34.09 26.31,-20.37 22.32,-41.98 52.35,-55.39 3.38,-1.51 19.12,-8.24 40.17,-6.7 0,0 27.82,2.04 51.13,21.3 26.52,21.94 32.93,55.58 33.75,79.32 z"
   inkscape:connector-curvature="0"
   style="opacity:0.3;fill:#3fbde6" />
		<path
   id="XMLID_2371_"
   class="st0"
   d="m 701.94,434.62 v 200.44 c 0,9.28 -7.52,16.8 -16.8,16.8 H 355.71 c -9.28,0 -16.8,-7.52 -16.8,-16.8 v -53.92 c 20.97,13.35 43.81,21.57 68.04,20.64 109.94,-4.21 155.95,-193.37 245.98,-189.15 14.72,0.69 31.2,6.57 49.01,21.99 z"
   inkscape:connector-curvature="0"
   style="opacity:0.2;fill:#ffffff" />
	</g>
	<g
   id="XMLID_2365_">
		<g
   id="XMLID_2369_">
			<ellipse
   id="Oval_57_"
   class="st2"
   cx="372.44"
   cy="359.04999"
   rx="4.4499998"
   ry="4.04"
   style="fill:#ffffff" />
			<ellipse
   id="Oval_56_"
   class="st2"
   cx="388.12"
   cy="359.04999"
   rx="4.4499998"
   ry="4.04"
   style="fill:#ffffff" />
			<ellipse
   id="Oval_55_"
   class="st2"
   cx="403.85001"
   cy="359.04999"
   rx="4.4499998"
   ry="4.04"
   style="fill:#ffffff" />
			<path
   id="Path_19_"
   class="st5"
   d="m 510.71,374.98 v -12.61 c 0,-1.27 -1.14,-2.31 -2.54,-2.31 h -74.86 c -1.4,0 -2.54,1.04 -2.54,2.31 v 12.61 z"
   inkscape:connector-curvature="0"
   style="fill:#fffbf4" />
			<linearGradient
   id="Rectangle_1_"
   gradientUnits="userSpaceOnUse"
   x1="453.3927"
   y1="367.50931"
   x2="507.4404"
   y2="367.50931">
				<stop
   offset="0"
   style="stop-color:#009FCA"
   id="stop16" />
				<stop
   offset="1"
   style="stop-color:#02509C"
   id="stop18" />
			</linearGradient>
			<path
   id="Rectangle_19_"
   class="st6"
   d="m 455.43,365.31 h 49.98 c 1.12,0 2.04,0.83 2.04,1.85 v 0.69 c 0,1.02 -0.91,1.85 -2.04,1.85 h -49.98 c -1.12,0 -2.04,-0.83 -2.04,-1.85 v -0.69 c 0,-1.02 0.91,-1.85 2.04,-1.85 z"
   inkscape:connector-curvature="0"
   style="fill:url(#Rectangle_1_)" />
		</g>
		<path
   id="XMLID_2366_"
   class="st3"
   d="m 449.77,364.55 c -0.35,-0.52 -1.13,-0.64 -1.61,-0.23 l -3.08,2.6 -1.23,-2.6 c -0.17,-0.37 -0.54,-0.61 -0.95,-0.62 -0.41,-0.01 -0.79,0.2 -0.99,0.56 l -1.38,2.53 -2.9,-2.72 c -0.46,-0.43 -1.24,-0.35 -1.62,0.14 -0.21,0.28 -0.27,0.64 -0.17,0.98 l 1.8,5.73 c 0.14,0.44 0.54,0.75 1.01,0.76 0.41,0.01 0.79,-0.2 0.99,-0.56 l 1.22,-2.23 0.64,-1.18 1.35,-2.46 1.2,2.54 -1.29,1.09 -0.96,-0.9 -0.66,1.16 0.87,0.82 c 0.19,0.18 0.45,0.29 0.71,0.29 0.27,0.01 0.53,-0.08 0.74,-0.26 l 1.17,-0.99 1.03,-0.87 2.73,-2.3 -1.71,4.46 -0.85,-1.8 -1.03,0.87 0.91,1.93 c 0.18,0.37 0.54,0.61 0.95,0.62 0.47,0.01 0.88,-0.26 1.05,-0.7 l 2.17,-5.68 c 0.12,-0.33 0.08,-0.69 -0.11,-0.98 z m -11.04,5.5 -1.41,-4.49 2.56,2.4 z"
   inkscape:connector-curvature="0"
   style="fill:#191c37" />
	</g>
</g>
<g
   id="XMLID_2357_"
   transform="translate(-223.02,-724.82)">
	<g
   id="g28">
		<g
   id="XMLID_30_">
			<path
   id="XMLID_31_"
   class="st7"
   d="m 1350.89,454.12 c 17.15,-38.74 67.05,-70.65 106.46,-55.1 8.08,3.19 15.83,7.69 24.46,8.71 11.9,1.4 23.73,-4.19 32.73,-12.12 8.99,-7.92 15.69,-18.05 22.71,-27.77 18.03,-24.97 40.66,-49.15 70.54,-56.62 36.04,-9.01 75.01,9.61 97.98,38.8 22.97,29.19 32.17,67.04 34.91,104.09 h -389.79 z"
   inkscape:connector-curvature="0"
   style="fill:#b0d2f0" />
		</g>
	</g>
</g>
<g
   id="XMLID_2356_"
   class="st8"
   style="opacity:0.5"
   transform="translate(-223.02,-724.82)">
	<circle
   class="st9"
   cx="1658.4399"
   cy="447.14001"
   r="31.040001"
   id="circle31"
   style="fill:none;stroke:#2f2d7d;stroke-width:10;stroke-miterlimit:10" />
</g>
<g
   id="XMLID_2341_"
   class="st10"
   style="opacity:0.8"
   transform="translate(-223.02,-724.82)">
	<g
   id="g37">
		<path
   id="XMLID_62_"
   class="st7"
   d="m 227.75,724.84 h 108.2 c 2.61,0 4.73,2.12 4.73,4.73 0,2.61 -2.12,4.73 -4.73,4.73 h -108.2 c -2.61,0 -4.73,-2.12 -4.73,-4.73 0,-2.61 2.12,-4.73 4.73,-4.73 z"
   inkscape:connector-curvature="0"
   style="fill:#b0d2f0" />
		<path
   id="XMLID_61_"
   class="st7"
   d="m 370.4,724.82 h 21.14 c 2.61,0 4.73,2.12 4.73,4.73 0,2.61 -2.12,4.73 -4.73,4.73 H 370.4 c -2.61,0 -4.73,-2.12 -4.73,-4.73 -0.01,-2.61 2.11,-4.73 4.73,-4.73 z"
   inkscape:connector-curvature="0"
   style="fill:#b0d2f0" />
		<path
   id="XMLID_57_"
   class="st7"
   d="m 253.33,757.81 h 13.53 c 2.61,0 4.73,2.12 4.73,4.73 0,2.61 -2.12,4.73 -4.73,4.73 h -13.53 c -2.61,0 -4.73,-2.12 -4.73,-4.73 -0.01,-2.62 2.11,-4.73 4.73,-4.73 z m 37.2,0 h 23.67 c 2.61,0 4.73,2.12 4.73,4.73 0,2.61 -2.12,4.73 -4.73,4.73 h -23.67 c -2.61,0 -4.73,-2.12 -4.73,-4.73 0,-2.62 2.11,-4.73 4.73,-4.73 z m 47.33,0 h 23.67 c 2.61,0 4.73,2.12 4.73,4.73 0,2.61 -2.12,4.73 -4.73,4.73 h -23.67 c -2.61,0 -4.73,-2.12 -4.73,-4.73 0,-2.62 2.12,-4.73 4.73,-4.73 z"
   inkscape:connector-curvature="0"
   style="fill:#b0d2f0" />
	</g>
</g>
<g
   id="XMLID_2340_"
   class="st8"
   style="opacity:0.5"
   transform="translate(-223.02,-724.82)">
	<circle
   class="st11"
   cx="1470.51"
   cy="319.64999"
   r="19"
   id="circle40"
   style="fill:none;stroke:#2f2d7d;stroke-width:9;stroke-miterlimit:10" />
</g>
<g
   id="XMLID_2328_"
   transform="translate(-223.02,-724.82)">
	<path
   id="XMLID_2339_"
   class="st0"
   d="M 261.31,567.67 H 85.11 c -10.14,0 -18.36,-8.22 -18.36,-18.36 V 407.06 c 0,-10.14 8.22,-18.36 18.36,-18.36 h 176.2 c 10.14,0 18.36,8.22 18.36,18.36 v 142.25 c 0,10.14 -8.22,18.36 -18.36,18.36 z"
   inkscape:connector-curvature="0"
   style="opacity:0.2;fill:#ffffff" />
	<g
   id="XMLID_2338_"
   class="st1"
   style="opacity:0.4">
		<path
   class="st2"
   d="m 271.59,408.76 v 146.76 c 0,2.52 -2.05,4.57 -4.57,4.57 H 79.4 c -2.52,0 -4.57,-2.05 -4.57,-4.57 V 408.76 h 196.76 m 5,-5 H 69.83 v 151.76 c 0,5.28 4.28,9.57 9.57,9.57 h 187.63 c 5.28,0 9.57,-4.28 9.57,-9.57 V 403.76 Z"
   id="path44"
   inkscape:connector-curvature="0"
   style="fill:#ffffff" />
	</g>
	<path
   id="XMLID_2337_"
   class="st3"
   d="M 259,391.28 H 87.42 c -9.72,0 -17.59,7.88 -17.59,17.59 v 0 h 206.76 v 0 c 0,-9.71 -7.88,-17.59 -17.59,-17.59 z"
   inkscape:connector-curvature="0"
   style="fill:#191c37" />
	<g
   id="XMLID_2334_">
		<path
   id="XMLID_2336_"
   class="st4"
   d="m 248.57,480.82 c 0.36,10.35 -2.05,20.6 -6.89,29.76 -5.71,10.79 -15.14,23.59 -30.36,31.85 -41.3,22.41 -101.01,-1.64 -113.36,-35.01 -0.88,-2.36 -6.65,-17.98 0.69,-29.12 9.38,-14.23 28.75,-3.83 48.88,-19.41 14.98,-11.6 12.71,-23.91 29.81,-31.55 1.92,-0.86 10.89,-4.69 22.88,-3.81 0,0 15.85,1.16 29.12,12.13 15.11,12.48 18.76,31.64 19.23,45.16 z"
   inkscape:connector-curvature="0"
   style="opacity:0.3;fill:#3fbde6" />
		<path
   id="XMLID_2335_"
   class="st0"
   d="m 276.59,441.35 v 114.16 c 0,5.28 -4.28,9.57 -9.57,9.57 H 79.4 c -5.28,0 -9.57,-4.28 -9.57,-9.57 V 524.8 c 11.94,7.6 24.95,12.28 38.75,11.76 62.61,-2.4 88.82,-110.13 140.1,-107.73 8.38,0.39 17.77,3.75 27.91,12.52 z"
   inkscape:connector-curvature="0"
   style="opacity:0.2;fill:#ffffff" />
	</g>
	<g
   id="XMLID_2329_">
		<g
   id="XMLID_2333_">
			<ellipse
   id="Oval_54_"
   class="st2"
   cx="88.919998"
   cy="398.32001"
   rx="2.54"
   ry="2.3"
   style="fill:#ffffff" />
			<ellipse
   id="Oval_53_"
   class="st2"
   cx="97.860001"
   cy="398.32001"
   rx="2.54"
   ry="2.3"
   style="fill:#ffffff" />
			<ellipse
   id="Oval_52_"
   class="st2"
   cx="106.81"
   cy="398.32001"
   rx="2.54"
   ry="2.3"
   style="fill:#ffffff" />
			<path
   id="Path_18_"
   class="st5"
   d="m 167.68,407.39 v -7.18 c 0,-0.72 -0.65,-1.32 -1.45,-1.32 h -42.64 c -0.8,0 -1.45,0.59 -1.45,1.32 v 7.18 z"
   inkscape:connector-curvature="0"
   style="fill:#fffbf4" />
			<linearGradient
   id="Rectangle_2_"
   gradientUnits="userSpaceOnUse"
   x1="135.03101"
   y1="403.1329"
   x2="165.8134"
   y2="403.1329">
				<stop
   offset="0"
   style="stop-color:#009FCA"
   id="stop55" />
				<stop
   offset="1"
   style="stop-color:#02509C"
   id="stop57" />
			</linearGradient>
			<path
   id="Rectangle_18_"
   class="st12"
   d="m 136.19,401.88 h 28.46 c 0.64,0 1.16,0.47 1.16,1.05 v 0.39 c 0,0.58 -0.52,1.05 -1.16,1.05 h -28.46 c -0.64,0 -1.16,-0.47 -1.16,-1.05 v -0.39 c 0,-0.58 0.52,-1.05 1.16,-1.05 z"
   inkscape:connector-curvature="0"
   style="fill:url(#Rectangle_2_)" />
		</g>
		<path
   id="XMLID_2330_"
   class="st3"
   d="m 132.97,401.45 c -0.2,-0.29 -0.64,-0.37 -0.92,-0.13 l -1.76,1.48 -0.7,-1.48 c -0.1,-0.21 -0.31,-0.35 -0.54,-0.36 -0.23,-0.01 -0.45,0.12 -0.56,0.32 l -0.79,1.44 -1.65,-1.55 c -0.26,-0.25 -0.71,-0.2 -0.92,0.08 -0.12,0.16 -0.16,0.36 -0.09,0.56 l 1.03,3.26 c 0.08,0.25 0.31,0.43 0.57,0.43 0.23,0.01 0.45,-0.12 0.56,-0.32 l 0.7,-1.27 0.37,-0.67 0.77,-1.4 0.68,1.45 -0.74,0.62 -0.55,-0.51 -0.38,0.66 0.5,0.47 c 0.11,0.1 0.25,0.16 0.41,0.17 0.15,0 0.3,-0.05 0.42,-0.15 l 0.67,-0.56 0.58,-0.49 1.55,-1.31 -0.97,2.54 -0.48,-1.02 -0.58,0.5 0.52,1.1 c 0.1,0.21 0.31,0.35 0.54,0.36 0.27,0.01 0.5,-0.15 0.6,-0.4 l 1.24,-3.24 c 0.05,-0.21 0.03,-0.42 -0.08,-0.58 z m -6.29,3.13 -0.8,-2.56 1.46,1.37 z"
   inkscape:connector-curvature="0"
   style="fill:#191c37" />
	</g>
</g>
<g
   id="XMLID_2316_"
   transform="translate(-223.02,-724.82)">
	<path
   id="XMLID_2327_"
   class="st0"
   d="M 377.53,301.95 H 227.2 c -5.03,0 -9.11,-4.08 -9.11,-9.11 V 169.38 c 0,-5.03 4.08,-9.11 9.11,-9.11 h 150.33 c 5.03,0 9.11,4.08 9.11,9.11 v 123.46 c 0,5.03 -4.08,9.11 -9.11,9.11 z"
   inkscape:connector-curvature="0"
   style="opacity:0.2;fill:#ffffff" />
	<g
   id="XMLID_2326_"
   class="st1"
   style="opacity:0.4">
		<path
   class="st2"
   d="m 379.2,177.2 v 115.13 c 0,1.42 -1.15,2.57 -2.57,2.57 H 228.1 c -1.42,0 -2.57,-1.15 -2.57,-2.57 V 177.2 H 379.2 m 5,-5 H 220.53 v 120.13 c 0,4.18 3.39,7.57 7.57,7.57 h 148.52 c 4.18,0 7.57,-3.39 7.57,-7.57 V 172.2 Z"
   id="path66"
   inkscape:connector-curvature="0"
   style="fill:#ffffff" />
	</g>
	<path
   id="XMLID_2325_"
   class="st3"
   d="M 370.27,162.32 H 234.46 c -7.69,0 -13.93,6.24 -13.93,13.93 v 0 H 384.2 v 0 c 0,-7.69 -6.24,-13.93 -13.93,-13.93 z"
   inkscape:connector-curvature="0"
   style="fill:#191c37" />
	<g
   id="XMLID_2322_">
		<path
   id="XMLID_2324_"
   class="st4"
   d="m 362.02,233.2 c 0.28,8.19 -1.62,16.31 -5.45,23.56 -4.52,8.54 -11.98,18.67 -24.03,25.21 -32.69,17.74 -79.96,-1.3 -89.74,-27.72 -0.69,-1.87 -5.27,-14.23 0.55,-23.05 7.43,-11.27 22.76,-3.03 38.69,-15.37 11.86,-9.18 10.06,-18.93 23.6,-24.97 1.52,-0.68 8.62,-3.72 18.11,-3.02 0,0 12.54,0.92 23.05,9.6 11.95,9.89 14.85,25.05 15.22,35.76 z"
   inkscape:connector-curvature="0"
   style="opacity:0.3;fill:#3fbde6" />
		<path
   id="XMLID_2323_"
   class="st0"
   d="m 384.2,201.96 v 90.37 c 0,4.18 -3.39,7.57 -7.57,7.57 H 228.1 c -4.18,0 -7.57,-3.39 -7.57,-7.57 v -24.31 c 9.45,6.02 19.75,9.72 30.67,9.31 49.56,-1.9 70.31,-87.18 110.9,-85.28 6.64,0.3 14.07,2.96 22.1,9.91 z"
   inkscape:connector-curvature="0"
   style="opacity:0.2;fill:#ffffff" />
	</g>
	<g
   id="XMLID_2317_">
		<g
   id="XMLID_2321_">
			<ellipse
   id="Oval_51_"
   class="st2"
   cx="235.64"
   cy="167.89"
   rx="2.01"
   ry="1.8200001"
   style="fill:#ffffff" />
			<ellipse
   id="Oval_50_"
   class="st2"
   cx="242.71001"
   cy="167.89"
   rx="2.01"
   ry="1.8200001"
   style="fill:#ffffff" />
			<ellipse
   id="Oval_49_"
   class="st2"
   cx="249.8"
   cy="167.89"
   rx="2.01"
   ry="1.8200001"
   style="fill:#ffffff" />
			<path
   id="Path_17_"
   class="st5"
   d="m 297.98,175.07 v -5.69 c 0,-0.57 -0.52,-1.04 -1.15,-1.04 h -33.75 c -0.63,0 -1.15,0.47 -1.15,1.04 v 5.69 z"
   inkscape:connector-curvature="0"
   style="fill:#fffbf4" />
			<linearGradient
   id="Rectangle_3_"
   gradientUnits="userSpaceOnUse"
   x1="272.1409"
   y1="171.70261"
   x2="296.50781"
   y2="171.70261">
				<stop
   offset="0"
   style="stop-color:#009FCA"
   id="stop77" />
				<stop
   offset="1"
   style="stop-color:#02509C"
   id="stop79" />
			</linearGradient>
			<path
   id="Rectangle_17_"
   class="st13"
   d="m 273.06,170.71 h 22.53 c 0.51,0 0.92,0.37 0.92,0.83 v 0.31 c 0,0.46 -0.41,0.84 -0.92,0.84 h -22.53 c -0.51,0 -0.92,-0.37 -0.92,-0.84 v -0.31 c 0,-0.45 0.41,-0.83 0.92,-0.83 z"
   inkscape:connector-curvature="0"
   style="fill:url(#Rectangle_3_)" />
		</g>
		<path
   id="XMLID_2318_"
   class="st3"
   d="m 270.51,170.37 c -0.16,-0.23 -0.51,-0.29 -0.73,-0.1 l -1.39,1.17 -0.55,-1.17 c -0.08,-0.17 -0.24,-0.28 -0.43,-0.28 -0.19,-0.01 -0.36,0.09 -0.45,0.25 l -0.62,1.14 -1.31,-1.23 c -0.21,-0.19 -0.56,-0.16 -0.73,0.06 -0.1,0.13 -0.12,0.29 -0.07,0.44 l 0.81,2.58 c 0.06,0.2 0.25,0.34 0.45,0.34 0.18,0.01 0.36,-0.09 0.44,-0.25 l 0.55,-1.01 0.29,-0.53 0.61,-1.11 0.54,1.15 -0.58,0.49 -0.44,-0.41 -0.3,0.52 0.39,0.37 c 0.09,0.08 0.2,0.13 0.32,0.13 0.12,0 0.24,-0.04 0.33,-0.12 l 0.53,-0.45 0.46,-0.39 1.23,-1.04 -0.77,2.01 -0.38,-0.81 -0.46,0.39 0.41,0.87 c 0.08,0.17 0.24,0.28 0.43,0.28 0.21,0.01 0.4,-0.12 0.47,-0.32 l 0.98,-2.56 c 0.07,-0.12 0.05,-0.28 -0.03,-0.41 z m -4.98,2.48 -0.64,-2.03 1.15,1.08 z"
   inkscape:connector-curvature="0"
   style="fill:#191c37" />
	</g>
</g>
<rect
   id="XMLID_2076_"
   x="-223.02002"
   y="-724.82001"
   class="st14"
   width="1920"
   height="1080"
   style="fill:none" />
</svg>